<svg width="13" height="13" viewBox="0 0 13 13" fill="none" xmlns="http://www.w3.org/2000/svg">
<path d="M12.5469 6.54718C12.5469 6.11214 12.5116 5.67475 12.4364 5.24677H6.3999V7.7112H9.85671C9.71326 8.50603 9.25236 9.20915 8.57746 9.65595V11.255H10.6398C11.8508 10.1404 12.5469 8.49428 12.5469 6.54718Z" fill="#4285F4"/>
<path d="M6.39967 12.8C8.12572 12.8 9.58134 12.2333 10.6419 11.255L8.57957 9.65596C8.00579 10.0463 7.26504 10.2674 6.40202 10.2674C4.73241 10.2674 3.31677 9.14096 2.80883 7.62656H0.680664V9.275C1.76709 11.4361 3.97991 12.8 6.39967 12.8V12.8Z" fill="#34A853"/>
<path d="M2.80659 7.62652C2.53851 6.83169 2.53851 5.97102 2.80659 5.17619V3.52774H0.680778C-0.226926 5.33609 -0.226926 7.46661 0.680778 9.27496L2.80659 7.62652V7.62652Z" fill="#FBBC04"/>
<path d="M6.39967 2.53307C7.31207 2.51896 8.19391 2.86229 8.8547 3.49251L10.6819 1.66534C9.5249 0.578916 7.98933 -0.0183812 6.39967 0.000431274C3.97991 0.000431274 1.76709 1.36434 0.680664 3.52778L2.80648 5.17623C3.31206 3.65947 4.73006 2.53307 6.39967 2.53307V2.53307Z" fill="#EA4335"/>
</svg>
