<svg width="13" height="11" viewBox="0 0 13 11" fill="none" xmlns="http://www.w3.org/2000/svg">
<path fill-rule="evenodd" clip-rule="evenodd" d="M0.936917 0.976922C1.53701 0.377015 2.35079 0.0400054 3.19932 0.0400054C4.04784 0.0400054 4.86163 0.377015 5.46172 0.976922L6.39932 1.91372L7.33692 0.976922C7.63211 0.67129 7.98521 0.427506 8.37562 0.259798C8.76604 0.0920888 9.18594 0.00381303 9.61083 0.000120821C10.0357 -0.00357139 10.4571 0.0773942 10.8504 0.238293C11.2436 0.399192 11.6009 0.636801 11.9014 0.937258C12.2018 1.23771 12.4394 1.595 12.6003 1.98827C12.7612 2.38154 12.8422 2.80291 12.8385 3.22781C12.8348 3.6527 12.7465 4.0726 12.5788 4.46302C12.4111 4.85343 12.1673 5.20653 11.8617 5.50172L6.39932 10.9649L0.936917 5.50172C0.337009 4.90163 0 4.08785 0 3.23932C0 2.3908 0.337009 1.57701 0.936917 0.976922Z" fill="#EF4444"/>
</svg>
